<svg width="48" height="48" viewBox="0 0 48 48" fill="none" xmlns="http://www.w3.org/2000/svg">
<mask id="path-1-inside-1_393_239" fill="white">
<path d="M0 0H48V48H0V0Z"/>
</mask>
<path d="M0 0H48V48H0V0Z" fill="white"/>
<path d="M48 48V47H0V48V49H48V48Z" fill="#EEEEEE" mask="url(#path-1-inside-1_393_239)"/>
<path d="M12.4658 31.8347L12.4639 31.8357L12.4688 31.8308C12.4773 31.8212 12.4943 31.8016 12.5186 31.7712C12.5674 31.7101 12.6462 31.6045 12.7451 31.448C12.9427 31.1351 13.2223 30.6151 13.5078 29.8298C14.0792 28.2585 14.6758 25.6185 14.6758 21.4441C14.6758 19.3151 15.522 17.2737 17.0273 15.7683C18.5327 14.2629 20.5742 13.4168 22.7031 13.4167C24.8322 13.4167 26.8744 14.2629 28.3799 15.7683C29.8851 17.2737 30.7304 19.3153 30.7305 21.4441C30.7305 25.6184 31.3271 28.2585 31.8984 29.8298C32.184 30.6152 32.4645 31.1351 32.6621 31.448C32.7609 31.6044 32.8388 31.7101 32.8877 31.7712C32.9121 31.8018 32.93 31.8213 32.9385 31.8308C32.942 31.8347 32.9438 31.8371 32.9443 31.8376C33.1529 32.052 33.2142 32.3702 33.0996 32.6472C32.9836 32.9273 32.7104 33.1099 32.4072 33.1101H13C12.6967 33.1101 12.4227 32.9275 12.3066 32.6472C12.1916 32.3689 12.2548 32.0491 12.4658 31.8347Z" stroke="#1C1B1F" stroke-width="1.5" stroke-linecap="round" stroke-linejoin="round"/>
<path d="M25.1301 33.5742C25.1301 34.914 24.044 36.0001 22.7043 36.0001C21.3645 36.0001 20.2784 34.914 20.2784 33.5742" stroke="#1C1B1F" stroke-width="1.5"/>
<circle cx="34.7257" cy="14.2743" r="2.27429" fill="#FF7335"/>
</svg>
