<svg width="84" height="60" viewBox="0 0 84 60" fill="none" xmlns="http://www.w3.org/2000/svg">
<g filter="url(#filter0_d_298_2188)">
<rect x="2" y="1" width="80" height="56" rx="10" fill="white"/>
<path d="M66 29H18V11H66V29Z" stroke="#E5E7EB"/>
<g clip-path="url(#clip0_298_2188)">
<path d="M31.875 12.125C32.4973 12.125 33 12.6277 33 13.25V22.25H40.875V16.625C40.875 16.0027 41.3777 15.5 42 15.5H49.875C51.7383 15.5 53.25 17.0117 53.25 18.875V26.75C53.25 27.3723 52.7473 27.875 52.125 27.875C51.5027 27.875 51 27.3723 51 26.75V25.625H43.125H42H33V26.75C33 27.3723 32.4973 27.875 31.875 27.875C31.2527 27.875 30.75 27.3723 30.75 26.75V13.25C30.75 12.6277 31.2527 12.125 31.875 12.125ZM36.9375 15.5C37.6834 15.5 38.3988 15.7963 38.9262 16.3238C39.4537 16.8512 39.75 17.5666 39.75 18.3125C39.75 19.0584 39.4537 19.7738 38.9262 20.3012C38.3988 20.8287 37.6834 21.125 36.9375 21.125C36.1916 21.125 35.4762 20.8287 34.9488 20.3012C34.4213 19.7738 34.125 19.0584 34.125 18.3125C34.125 17.5666 34.4213 16.8512 34.9488 16.3238C35.4762 15.7963 36.1916 15.5 36.9375 15.5Z" fill="#7547FF"/>
</g>
<path d="M37.8711 35.082C37.8711 36.3359 39.5586 37.5195 41.5742 37.8008L41.1406 38.668C39.4648 38.4102 37.9824 37.5898 37.3086 36.4531C36.6289 37.5957 35.1465 38.4102 33.4648 38.668L33.043 37.8008C35.0586 37.5195 36.7344 36.3477 36.7344 35.082V34.6367H37.8711V35.082ZM42.0898 39.4062V40.3086H37.8477V41.5508H40.918V44.9961H39.793V42.4414H33.582V41.5508H36.7461V40.3086H32.5156V39.4062H42.0898ZM51.1367 34.4961V37.1797H52.6602V38.0938H51.1367V40.8242H50.0234V34.4961H51.1367ZM51.1367 41.3516V44.9961H50.0234V42.2539H44.1992V41.3516H51.1367ZM44.3867 35.1523V36.7227H47.1406V35.1523H48.2422V40.1562H43.2969V35.1523H44.3867ZM44.3867 39.2656H47.1406V37.6016H44.3867V39.2656Z" fill="#7547FF"/>
</g>
<defs>
<filter id="filter0_d_298_2188" x="0" y="0" width="84" height="60" filterUnits="userSpaceOnUse" color-interpolation-filters="sRGB">
<feFlood flood-opacity="0" result="BackgroundImageFix"/>
<feColorMatrix in="SourceAlpha" type="matrix" values="0 0 0 0 0 0 0 0 0 0 0 0 0 0 0 0 0 0 127 0" result="hardAlpha"/>
<feOffset dy="1"/>
<feGaussianBlur stdDeviation="1"/>
<feColorMatrix type="matrix" values="0 0 0 0 0 0 0 0 0 0 0 0 0 0 0 0 0 0 0.05 0"/>
<feBlend mode="normal" in2="BackgroundImageFix" result="effect1_dropShadow_298_2188"/>
<feBlend mode="normal" in="SourceGraphic" in2="effect1_dropShadow_298_2188" result="shape"/>
</filter>
<clipPath id="clip0_298_2188">
<path d="M30.75 11H53.25V29H30.75V11Z" fill="white"/>
</clipPath>
</defs>
</svg>
