<svg width="84" height="60" viewBox="0 0 84 60" fill="none" xmlns="http://www.w3.org/2000/svg">
<g filter="url(#filter0_d_298_2342)">
<rect x="2" y="1" width="80" height="56" rx="10" fill="white"/>
<path d="M40.7656 34.4961V37.3438H42.2891V38.2812H40.7656V41.2344H39.6523V34.4961H40.7656ZM37.4141 41.3164C39.5586 41.3164 40.8828 41.9961 40.8828 43.1562C40.8828 44.293 39.5586 44.9844 37.4141 44.9727C35.2461 44.9844 33.9219 44.293 33.9336 43.1562C33.9219 41.9961 35.2461 41.3164 37.4141 41.3164ZM37.4141 42.1719C35.9023 42.1719 35.0234 42.5117 35.0352 43.1562C35.0234 43.7656 35.9023 44.1289 37.4141 44.1289C38.9023 44.1289 39.7812 43.7656 39.7812 43.1562C39.7812 42.5117 38.9023 42.1719 37.4141 42.1719ZM38.7852 35.6211V36.5H32.5273V35.6211H35.1055V34.4141H36.2188V35.6211H38.7852ZM35.6562 36.9805C37.168 36.9805 38.1992 37.7305 38.1992 38.8555C38.1992 39.9805 37.168 40.7188 35.6562 40.707C34.1211 40.7188 33.1016 39.9805 33.1016 38.8555C33.1016 37.7305 34.1211 36.9805 35.6562 36.9805ZM35.6562 37.8125C34.7656 37.8125 34.168 38.2109 34.1797 38.8555C34.168 39.4766 34.7656 39.8633 35.6562 39.8633C36.5469 39.8633 37.1445 39.4766 37.1562 38.8555C37.1445 38.2109 36.5469 37.8125 35.6562 37.8125ZM47.6211 41.0938C49.8945 41.0938 51.3242 41.8086 51.3359 43.0391C51.3242 44.2578 49.8945 44.9844 47.6211 44.9727C45.3711 44.9844 43.9297 44.2578 43.9297 43.0391C43.9297 41.8086 45.3711 41.0938 47.6211 41.0938ZM47.6211 41.9375C46.0273 41.9375 45.0312 42.3477 45.043 43.0391C45.0312 43.7188 46.0273 44.1172 47.6211 44.1172C49.2266 44.1172 50.2227 43.7188 50.2344 43.0391C50.2227 42.3477 49.2266 41.9375 47.6211 41.9375ZM51.2539 35.0117V35.8906C51.2539 36.7344 51.2539 37.6016 50.9609 38.6797L49.8711 38.5625C50.1523 37.4902 50.1523 36.7168 50.1523 35.9023H44.0117V35.0117H51.2539ZM52.4492 39.3242V40.2266H42.8984V39.3242H46.7305V37.3555H47.8203V39.3242H52.4492Z" fill="#7547FF"/>
<path d="M66 31H18V13H66V31Z" stroke="#E5E7EB"/>
<g clip-path="url(#clip0_298_2342)">
<path d="M48.8309 19.75C50.0332 19.75 52.125 20.7695 52.125 22C52.125 23.2656 50.0332 24.25 48.8309 24.25H44.7316L41.1984 30.434C40.998 30.7855 40.6254 31 40.2211 31H38.2453C37.8727 31 37.602 30.6414 37.7039 30.2828L39.4266 24.25H35.8125L34.2938 26.275C34.1883 26.4156 34.0195 26.5 33.8438 26.5H32.3672C32.093 26.5 31.875 26.2785 31.875 26.0078C31.875 25.9621 31.882 25.9164 31.8926 25.8707L33 22L31.8926 18.1293C31.8785 18.0836 31.875 18.0379 31.875 17.9922C31.875 17.718 32.0965 17.5 32.3672 17.5H33.8438C34.0195 17.5 34.1883 17.5844 34.2938 17.725L35.8125 19.75H39.4301L37.7074 13.7172C37.602 13.3586 37.8727 13 38.2453 13H40.2211C40.6254 13 40.998 13.218 41.1984 13.566L44.7316 19.75H48.8309Z" fill="#7547FF"/>
</g>
</g>
<defs>
<filter id="filter0_d_298_2342" x="0" y="0" width="84" height="60" filterUnits="userSpaceOnUse" color-interpolation-filters="sRGB">
<feFlood flood-opacity="0" result="BackgroundImageFix"/>
<feColorMatrix in="SourceAlpha" type="matrix" values="0 0 0 0 0 0 0 0 0 0 0 0 0 0 0 0 0 0 127 0" result="hardAlpha"/>
<feOffset dy="1"/>
<feGaussianBlur stdDeviation="1"/>
<feColorMatrix type="matrix" values="0 0 0 0 0 0 0 0 0 0 0 0 0 0 0 0 0 0 0.05 0"/>
<feBlend mode="normal" in2="BackgroundImageFix" result="effect1_dropShadow_298_2342"/>
<feBlend mode="normal" in="SourceGraphic" in2="effect1_dropShadow_298_2342" result="shape"/>
</filter>
<clipPath id="clip0_298_2342">
<path d="M31.875 13H52.125V31H31.875V13Z" fill="white"/>
</clipPath>
</defs>
</svg>
