<svg width="84" height="60" viewBox="0 0 84 60" fill="none" xmlns="http://www.w3.org/2000/svg">
<g filter="url(#filter0_d_298_2280)">
<rect x="2" y="1" width="80" height="56" rx="10" fill="white"/>
<path d="M36.2969 34.7188C38.6055 34.7188 40.0469 35.4688 40.0469 36.7344C40.0469 37.9766 38.6055 38.7148 36.2969 38.7148C34 38.7148 32.5469 37.9766 32.5469 36.7344C32.5469 35.4688 34 34.7188 36.2969 34.7188ZM36.2969 35.5977C34.6797 35.5977 33.6836 36.0078 33.6953 36.7344C33.6836 37.4375 34.6797 37.8359 36.2969 37.8477C37.9023 37.8359 38.8984 37.4375 38.8984 36.7344C38.8984 36.0078 37.9023 35.5977 36.2969 35.5977ZM39.918 41.3633V44.8672H32.6641V41.3633H39.918ZM33.7656 42.2539V43.9648H38.8398V42.2539H33.7656ZM41.0898 39.5234V40.4258H31.5156V39.5234H41.0898ZM45.707 36.0078C45.6953 37.4609 46.6914 38.7852 48.3086 39.3242L47.7461 40.2031C46.5332 39.7754 45.6191 38.9199 45.1445 37.8242C44.6758 39.002 43.7559 39.9336 42.5078 40.3789L41.9453 39.5117C43.5859 38.9258 44.5703 37.5078 44.5703 36.0078V35H45.707V36.0078ZM50.5938 41.3047V44.9961H49.4805V42.207H43.4805V41.3047H50.5938ZM50.5938 34.4961V40.8008H49.4805V34.4961H50.5938Z" fill="#7547FF"/>
<path d="M65 29H17V11H65V29Z" stroke="#E5E7EB"/>
<g clip-path="url(#clip0_298_2280)">
<path d="M47.75 11C47.1875 11 43.25 12.125 43.25 17.1875V21.125C43.25 22.366 44.259 23.375 45.5 23.375H46.625V27.875C46.625 28.4973 47.1277 29 47.75 29C48.3723 29 48.875 28.4973 48.875 27.875V23.375V19.4375V12.125C48.875 11.5027 48.3723 11 47.75 11ZM35.375 11.5625C35.375 11.2742 35.1605 11.0352 34.8723 11.0035C34.584 10.9719 34.3273 11.1617 34.2641 11.4395L33.1988 16.2313C33.1496 16.4527 33.125 16.6777 33.125 16.9027C33.125 18.5164 34.359 19.8418 35.9375 19.9859V27.875C35.9375 28.4973 36.4402 29 37.0625 29C37.6848 29 38.1875 28.4973 38.1875 27.875V19.9859C39.766 19.8418 41 18.5164 41 16.9027C41 16.6777 40.9754 16.4527 40.9262 16.2313L39.8609 11.4395C39.7977 11.1582 39.534 10.9719 39.2492 11.0035C38.9645 11.0352 38.75 11.2742 38.75 11.5625V16.2805C38.75 16.4703 38.5953 16.625 38.4055 16.625C38.2262 16.625 38.0785 16.4879 38.0609 16.3086L37.6215 11.5133C37.5969 11.2215 37.3543 11 37.0625 11C36.7707 11 36.5281 11.2215 36.5035 11.5133L36.0676 16.3086C36.05 16.4879 35.9023 16.625 35.723 16.625C35.5332 16.625 35.3785 16.4703 35.3785 16.2805V11.5625H35.375ZM37.073 16.9062H37.0625H37.052L37.0625 16.8816L37.073 16.9062Z" fill="#7547FF"/>
</g>
</g>
<defs>
<filter id="filter0_d_298_2280" x="0" y="0" width="84" height="60" filterUnits="userSpaceOnUse" color-interpolation-filters="sRGB">
<feFlood flood-opacity="0" result="BackgroundImageFix"/>
<feColorMatrix in="SourceAlpha" type="matrix" values="0 0 0 0 0 0 0 0 0 0 0 0 0 0 0 0 0 0 127 0" result="hardAlpha"/>
<feOffset dy="1"/>
<feGaussianBlur stdDeviation="1"/>
<feColorMatrix type="matrix" values="0 0 0 0 0 0 0 0 0 0 0 0 0 0 0 0 0 0 0.05 0"/>
<feBlend mode="normal" in2="BackgroundImageFix" result="effect1_dropShadow_298_2280"/>
<feBlend mode="normal" in="SourceGraphic" in2="effect1_dropShadow_298_2280" result="shape"/>
</filter>
<clipPath id="clip0_298_2280">
<path d="M33.125 11H48.875V29H33.125V11Z" fill="white"/>
</clipPath>
</defs>
</svg>
