<svg width="48" height="48" viewBox="0 0 48 48" fill="none" xmlns="http://www.w3.org/2000/svg">
<mask id="path-1-inside-1_393_235" fill="white">
<path d="M0 0H48V48H0V0Z"/>
</mask>
<path d="M0 0H48V48H0V0Z" fill="white"/>
<path d="M48 48V47H0V48V49H48V48Z" fill="#EEEEEE" mask="url(#path-1-inside-1_393_235)"/>
<path d="M34.4828 23.2414C34.4828 30.6379 24.2414 37 24.2414 37C24.2414 37 14 30.6379 14 23.2414C14 20.5252 15.079 17.9203 16.9996 15.9996C18.9203 14.079 21.5252 13 24.2414 13C26.9576 13 29.5625 14.079 31.4831 15.9996C33.4038 17.9203 34.4828 20.5252 34.4828 23.2414Z" fill="#7D45FF" stroke="#7D45FF" stroke-width="1.5" stroke-miterlimit="10"/>
<path d="M24.2414 26.5517C26.1268 26.5517 27.6552 25.0233 27.6552 23.1379C27.6552 21.2525 26.1268 19.7241 24.2414 19.7241C22.356 19.7241 20.8276 21.2525 20.8276 23.1379C20.8276 25.0233 22.356 26.5517 24.2414 26.5517Z" fill="white" stroke="#7D45FF" stroke-width="1.5" stroke-miterlimit="10"/>
</svg>
