<svg width="23" height="26" viewBox="0 0 23 26" fill="none" xmlns="http://www.w3.org/2000/svg">
    {/* 외부 핀 모양: fill="currentColor"로 유지하여 동적 색상 변경이 가능하도록 함 */}
    <path d="M21.4828 11.2414C21.4828 18.6379 11.2414 25 11.2414 25C11.2414 25 1 18.6379 1 11.2414C1 8.5252 2.07899 5.92026 3.99962 3.99963C5.92025 2.079 8.5252 1 11.2414 1C13.9576 1 16.5625 2.079 18.4831 3.99963C20.4038 5.92026 21.4828 8.5252 21.4828 11.2414Z" fill="currentColor" stroke="#7D45FF" stroke-width="1.5" stroke-miterlimit="10"/>
    
    {/* 내부 동그라미: fill="white"로 고정하여 항상 흰색으로 보이도록 수정 */}
    <path d="M11.2414 14.5517C13.1268 14.5517 14.6552 13.0233 14.6552 11.1379C14.6552 9.25253 13.1268 7.72412 11.2414 7.72412C9.35604 7.72412 7.82764 9.25253 7.82764 11.1379C7.82764 13.0233 9.35604 14.5517 11.2414 14.5517Z" fill="white" stroke="#7D45FF" stroke-width="1.5" stroke-miterlimit="10"/>
</svg>
