<svg width="192" height="76" viewBox="0 0 192 76" fill="none" xmlns="http://www.w3.org/2000/svg">
<path d="M0 72.9897C0.270773 70.345 0.496459 67.9739 0.676975 65.8763C0.85749 63.7788 0.99286 61.3165 1.08312 58.5349C1.17338 55.7534 1.30875 52.7895 1.35388 49.6887C1.39901 46.588 1.44416 44.1257 1.44416 42.3017C3.29444 42.3017 4.78369 42.3472 5.95705 42.3472C7.1304 42.3472 8.57448 42.3473 10.2894 42.2561C12.0043 42.2105 13.674 42.1648 15.2987 42.1648C17.1941 42.1648 18.909 42.2561 20.3983 42.3929C21.5265 42.4841 22.5193 42.712 23.4219 43.0312C24.3245 43.3504 25.0917 43.7608 25.7235 44.2168C26.3553 44.6728 26.8517 45.22 27.303 45.8128C27.7543 46.4056 28.0251 47.0895 28.2507 47.8647C28.4764 48.6398 28.6118 49.5064 28.6118 50.4183C28.6118 51.4215 28.4764 52.3791 28.2507 53.2454C28.0251 54.1118 27.6189 54.9325 27.0773 55.7077C26.5358 56.4829 25.8589 57.1669 25.0465 57.7141C24.2342 58.2612 23.0609 58.8541 21.5716 59.4468L22.745 62.3196C23.0609 63.0948 23.4219 63.9156 23.7829 64.7363L26.7615 71.3482C26.8969 71.6218 27.1225 72.2146 27.4835 73.0354C25.0466 73.0354 23.3768 73.0354 22.5644 73.0354C21.4813 73.0354 19.7665 73.0354 17.3295 73.0354C17.1039 72.2602 16.6526 70.801 16.0208 68.7034C15.75 67.837 15.5695 67.1531 15.389 66.6516C15.0279 65.6028 14.4864 64.098 13.8095 62.1828L11.5079 55.799C12.3202 55.9358 13.0874 56.0269 13.8546 56.0269C14.9377 56.0269 15.9305 55.8446 16.788 55.5254C17.6454 55.2062 18.3223 54.7046 18.7736 53.975C19.2249 53.2455 19.4506 52.5614 19.4506 51.7862C19.4506 51.1479 19.2701 50.5551 18.9542 50.0991C18.6383 49.6431 18.0967 49.2326 17.3295 49.0046C16.5624 48.7766 15.4793 48.6399 13.9449 48.6399C13.4033 48.6399 12.9069 48.6399 12.3202 48.6399C11.7336 48.6399 11.1017 48.64 10.3797 48.6856C10.1991 51.7407 10.0186 55.5254 9.88324 59.9485C9.74785 64.3716 9.6576 68.7034 9.61247 72.9897C7.13039 72.9897 5.50578 72.9897 4.78372 72.9897C3.92627 72.9897 2.3467 72.9897 0.135381 72.9897H0Z" fill="#7D45FF"/>
<path d="M53.6773 66.3957C53.4959 67.3084 53.0878 69.4531 52.5437 72.9212C50.8208 73.2862 49.3699 73.5144 48.191 73.6056C47.0121 73.6969 45.8332 73.7882 44.609 73.7882C42.8407 73.7882 41.2085 73.6514 39.7122 73.4232C38.2159 73.195 36.9464 72.7387 35.8582 72.0998C34.77 71.461 33.8631 70.6852 33.1377 69.7725C32.4122 68.8598 31.8681 67.7191 31.4601 66.4414C31.052 65.1637 30.8706 63.8402 30.8706 62.4712C30.8706 60.5546 31.2333 58.6837 32.0041 56.8128C32.7749 54.9875 33.7271 53.5272 34.9514 52.5233C36.1302 51.4737 37.5358 50.7436 39.1227 50.3329C40.7097 49.9222 42.2966 49.6941 43.9289 49.6941C45.5612 49.6941 47.2389 49.8766 48.7805 50.2873C50.3221 50.698 51.6369 51.3825 52.7251 52.3864C53.8133 53.3903 54.5841 54.4855 55.0375 55.7632C55.4909 57.0409 55.7177 58.3643 55.7177 59.7789C55.7177 60.6459 55.627 61.6042 55.4456 62.6538H39.7575C39.7575 62.9276 39.7575 63.1557 39.7575 63.3383C39.7575 64.9354 40.347 66.1219 41.4805 66.8976C42.614 67.6734 44.0196 68.0384 45.6972 68.0384C46.6947 68.0384 47.7829 67.9016 49.0525 67.6734C50.3221 67.4453 51.8636 67.0345 53.7226 66.4869L53.6773 66.3957ZM39.8935 59.1401H47.2842C47.2842 58.8663 47.2842 58.6837 47.2842 58.5012C47.2842 57.7254 47.1481 57.0409 46.8761 56.4933C46.604 55.9457 46.196 55.5351 45.6972 55.2613C45.1985 54.9875 44.609 54.8962 43.9742 54.8962C43.5208 54.8962 43.1128 54.9875 42.6594 55.1244C42.2059 55.2613 41.8432 55.4894 41.5258 55.7632C41.2084 56.037 40.891 56.3565 40.6643 56.7216C40.4376 57.0866 40.2563 57.4516 40.1656 57.771C40.0749 58.0905 39.9389 58.5924 39.8482 59.1857L39.8935 59.1401Z" fill="#7D45FF"/>
<path d="M57.2235 73.7882C57.3629 71.7547 57.5023 68.9697 57.5953 65.5216L63.1727 65.6101C63.7769 65.6101 65.3571 65.61 67.8669 65.5216C67.7275 67.2014 67.5416 69.9422 67.4021 73.7882H62.7079C62.3825 73.744 60.5234 73.7882 57.27 73.7882H57.2235ZM57.8742 58.7138C58.0136 56.2824 58.1531 53.4973 58.2925 50.447H63.8234C64.4276 50.4912 66.0078 50.447 68.5176 50.447C68.3782 51.9058 68.2387 54.691 68.0528 58.7138L63.3586 58.6253C63.0332 58.6253 61.1741 58.6254 57.9207 58.7138H57.8742Z" fill="#7D45FF"/>
<path d="M84.3496 73.7883L83.2674 70.2357L76.2779 49.8769L70.7765 34.2548C73.3919 34.2548 75.6917 34.3004 77.7209 34.3004C78.9835 34.3004 80.9225 34.3004 83.5831 34.2548C84.034 35.9856 84.3496 37.2609 84.6202 38.1718C84.9809 39.3105 85.6122 41.451 86.5592 44.457L90.7979 58.1662C91.2038 59.5781 91.745 61.4455 92.3312 63.7683L93.6388 60.4435L103.65 38.3085C103.83 37.8985 104.01 37.4431 104.236 36.8966C104.461 36.3956 114.562 15.5356 115.058 14.3059C117.854 14.3059 120.064 14.3515 121.732 14.3515C122.769 14.3515 124.889 14.3515 128 14.3059C126.061 17.9951 114.066 42.2253 111.631 47.0987L101.756 66.911C100.809 68.8239 99.7264 71.1466 98.554 73.7883C95.3524 73.7883 93.0526 73.7428 91.6547 73.7428C90.3921 73.7428 87.9571 73.7427 84.3947 73.7883H84.3496Z" fill="#7D45FF"/>
<path d="M119.012 74.5413C119.248 72.653 119.39 71.0871 119.532 69.8436C119.626 68.6001 119.768 67.0343 119.863 65.1461C119.957 63.2579 120.052 61.1393 120.146 58.7906C120.241 56.4418 120.288 53.7706 120.335 50.731C122.414 50.731 124.068 50.7771 125.297 50.7771C126.431 50.7771 128.038 50.7771 130.164 50.731C129.881 53.6785 129.692 56.2575 129.55 58.4681C129.408 60.6788 129.361 63.0275 129.314 65.5145C129.266 69.9357 129.219 72.9293 129.219 74.4952C127.329 74.4952 125.675 74.4491 124.305 74.4491C122.934 74.4491 121.186 74.4491 118.965 74.4952L119.012 74.5413ZM120.524 47.7835C120.619 45.9413 120.666 44.4676 120.666 43.4084C120.666 43.086 120.666 42.6714 120.666 42.1648C122.603 42.1648 124.21 42.2109 125.533 42.2109C127.329 42.2109 128.936 42.2108 130.259 42.1648C130.212 42.6253 130.164 43.0399 130.164 43.3623L130.022 46.2637C130.022 46.6782 129.975 47.2308 129.975 47.7835C128.416 47.7835 126.904 47.7375 125.439 47.7375C123.974 47.7375 122.32 47.7374 120.571 47.7835H120.524Z" fill="#7D45FF"/>
<path d="M134.907 73.7663C134.819 73.0826 134.73 72.399 134.642 71.6242C134.554 70.8494 134.421 69.8466 134.244 68.5704L134.024 66.9295C135.482 67.4765 136.719 67.8411 137.779 68.1146C138.84 68.3425 139.812 68.4793 140.652 68.4337C141.359 68.4337 141.977 68.3425 142.419 68.1602C142.861 68.0235 143.214 67.7955 143.391 67.5221C143.612 67.2486 143.7 66.9751 143.7 66.7017C143.7 66.4738 143.612 66.2003 143.435 65.9724C143.259 65.7445 142.905 65.4255 142.331 65.0153C141.093 64.1493 139.989 63.3289 139.017 62.5997C138.045 61.8704 137.337 61.2323 136.851 60.6853C136.365 60.1384 135.968 59.5003 135.703 58.8166C135.438 58.1329 135.305 57.4493 135.261 56.72C135.261 55.4438 135.526 54.2588 136.233 53.1193C136.94 51.9798 137.912 51.1595 139.282 50.6125C140.652 50.0656 142.331 49.7465 144.319 49.7009C146.307 49.6553 149.047 49.8378 152.273 50.248L152.847 56.6744C151.035 55.9907 149.268 55.6717 147.589 55.7173C146.396 55.7173 145.556 55.8996 145.026 56.1731C144.496 56.4466 144.231 56.8112 144.275 57.3582C144.275 57.5405 144.275 57.6772 144.363 57.8595C144.452 58.0418 144.54 58.1786 144.717 58.3153C144.893 58.452 145.07 58.6343 145.335 58.8166C145.6 58.9989 146.131 59.3636 147.059 60.0017C147.987 60.6398 148.694 61.1412 149.224 61.5058C150.063 62.1439 150.726 62.782 151.212 63.3289C151.698 63.8759 152.008 64.5139 152.273 65.152C152.538 65.7901 152.67 66.4739 152.67 67.2031C152.67 68.297 152.494 69.2996 152.008 70.2568C151.521 71.2139 150.77 71.9887 149.754 72.6268C148.738 73.2649 147.633 73.7208 146.44 74.0399C145.247 74.3589 144.01 74.4956 142.728 74.5412C141.845 74.5412 140.784 74.5412 139.459 74.4044C138.133 74.2677 136.631 74.0853 134.907 73.7663Z" fill="#7D45FF"/>
<path d="M157.412 74.5413C157.65 72.653 157.792 71.0871 157.934 69.8436C158.029 68.6001 158.171 67.0343 158.266 65.1461C158.361 63.2579 158.456 61.1393 158.551 58.7906C158.646 56.4418 158.694 53.7706 158.741 50.731C160.829 50.731 162.49 50.7771 163.724 50.7771C164.862 50.7771 166.476 50.7771 168.611 50.731C168.327 53.6785 168.137 56.2575 167.995 58.4681C167.852 60.6788 167.805 63.0275 167.757 65.5145C167.71 69.9357 167.662 72.9293 167.662 74.4952C165.764 74.4952 164.103 74.4491 162.727 74.4491C161.351 74.4491 159.595 74.4491 157.365 74.4952L157.412 74.5413ZM158.883 47.7835C158.978 45.9413 159.026 44.4676 159.026 43.4084C159.026 43.086 159.026 42.6714 159.026 42.1648C160.971 42.1648 162.585 42.2109 163.913 42.2109C165.717 42.2109 167.33 42.2108 168.659 42.1648C168.611 42.6253 168.564 43.0399 168.564 43.3623L168.422 46.2637C168.422 46.6782 168.374 47.2308 168.374 47.7835C166.808 47.7835 165.29 47.7375 163.819 47.7375C162.348 47.7375 160.687 47.7374 158.931 47.7835H158.883Z" fill="#7D45FF"/>
<path d="M191.111 67.7738C190.837 69.0737 190.61 70.3735 190.382 71.6269L189.882 74.5051C188.38 74.83 187.196 75.0621 186.331 75.1549C185.466 75.2478 184.647 75.2942 183.873 75.2942C182.553 75.2942 181.415 75.2014 180.414 74.9693C179.412 74.7372 178.548 74.3193 177.865 73.7158C177.182 73.1124 176.727 72.4161 176.499 71.6269C176.272 70.8378 176.135 70.0021 176.135 69.1201C176.135 68.9808 176.135 68.7023 176.135 68.2845C176.135 67.8668 176.226 66.9847 176.272 65.6385L176.772 57.5146H173.177C173.268 56.4469 173.313 55.0078 173.404 53.2437L173.495 51.0619H177.319C177.41 50.3191 177.546 48.7873 177.683 46.3269L181.643 45.4913C182.371 45.3521 183.919 44.9806 186.24 44.4236C186.149 46.4662 186.058 48.6944 186.013 51.0619H191.247C191.111 54.3114 191.065 56.4933 191.065 57.5146H185.785L185.512 63.3638C185.512 64.2458 185.466 64.8028 185.466 65.035C185.466 65.7777 185.557 66.4276 185.694 66.8918C185.83 67.356 186.149 67.7739 186.559 67.9596C186.968 68.1453 187.424 68.2845 187.924 68.2845C188.288 68.2845 188.698 68.2845 189.062 68.1916C189.472 68.1452 190.155 67.9596 191.202 67.681L191.111 67.7738Z" fill="#7D45FF"/>
<rect x="115.953" y="14.3059" width="13.5529" height="9.78824" fill="#7D45FF"/>
<path d="M127.965 24.1245L144.982 24.0588L129.271 7.15778L127.965 24.1245Z" fill="#7D45FF"/>
<path d="M158.4 0C155.752 0 153.6 2.17059 153.6 4.84034V29.042C153.6 31.7118 155.752 33.8824 158.4 33.8824H187.2C189.847 33.8824 192 31.7118 192 29.042V12.1008C192 9.43109 189.847 7.2605 187.2 7.2605H159.6C158.94 7.2605 158.4 6.71597 158.4 6.05042C158.4 5.38487 158.94 4.84034 159.6 4.84034H187.2C188.527 4.84034 189.6 3.75882 189.6 2.42017C189.6 1.08151 188.527 0 187.2 0H158.4ZM184.8 18.1513C185.436 18.1513 186.047 18.4062 186.497 18.8601C186.947 19.314 187.2 19.9296 187.2 20.5714C187.2 21.2133 186.947 21.8289 186.497 22.2827C186.047 22.7366 185.436 22.9916 184.8 22.9916C184.163 22.9916 183.553 22.7366 183.103 22.2827C182.653 21.8289 182.4 21.2133 182.4 20.5714C182.4 19.9296 182.653 19.314 183.103 18.8601C183.553 18.4062 184.163 18.1513 184.8 18.1513Z" fill="#7D45FF"/>
</svg>
