<svg width="84" height="60" viewBox="0 0 84 60" fill="none" xmlns="http://www.w3.org/2000/svg">
<g filter="url(#filter0_d_298_2311)">
<rect x="2" y="1" width="80" height="56" rx="10" fill="white"/>
<path d="M41.0898 38.8438V39.7344H36.8477V40.6484H39.8828V43.1094H33.7656V44.0352H40.1758V44.8906H32.6758V42.3008H38.7812V41.5039H32.6641V40.6484H35.7344V39.7344H31.5156V38.8438H41.0898ZM39.8594 34.8359V38.0703H32.7461V34.8359H39.8594ZM33.8359 35.7148V37.1914H38.7461V35.7148H33.8359ZM51.4609 39.5234V40.4141H47.2188V41.5391H50.2891V44.8672H43.0352V41.5391H46.1172V40.4141H41.8867V39.5234H51.4609ZM50.5586 34.8242V35.7266H49.0352V37.7305H50.5117V38.6328H42.8125V37.7305H44.3008V35.7266H42.7656V34.8242H50.5586ZM44.1367 42.418V43.9648H49.2109V42.418H44.1367ZM45.4023 37.7305H47.9219V35.7266H45.4023V37.7305Z" fill="#7547FF"/>
<path d="M66 29H18V11H66V29Z" stroke="#E5E7EB"/>
<g clip-path="url(#clip0_298_2311)">
<path d="M39.625 14.9375C39.625 13.6965 40.634 12.6875 41.875 12.6875C43.116 12.6875 44.125 13.6965 44.125 14.9375V16.625H39.625V14.9375ZM37.9375 16.625H35.6875C34.7559 16.625 34 17.3809 34 18.3125V25.625C34 27.4883 35.5117 29 37.375 29H46.375C48.2383 29 49.75 27.4883 49.75 25.625V18.3125C49.75 17.3809 48.9941 16.625 48.0625 16.625H45.8125V14.9375C45.8125 12.7613 44.0512 11 41.875 11C39.6988 11 37.9375 12.7613 37.9375 14.9375V16.625ZM38.7812 18.3125C39.005 18.3125 39.2196 18.4014 39.3779 18.5596C39.5361 18.7179 39.625 18.9325 39.625 19.1562C39.625 19.38 39.5361 19.5946 39.3779 19.7529C39.2196 19.9111 39.005 20 38.7812 20C38.5575 20 38.3429 19.9111 38.1846 19.7529C38.0264 19.5946 37.9375 19.38 37.9375 19.1562C37.9375 18.9325 38.0264 18.7179 38.1846 18.5596C38.3429 18.4014 38.5575 18.3125 38.7812 18.3125ZM44.125 19.1562C44.125 18.9325 44.2139 18.7179 44.3721 18.5596C44.5304 18.4014 44.745 18.3125 44.9688 18.3125C45.1925 18.3125 45.4071 18.4014 45.5654 18.5596C45.7236 18.7179 45.8125 18.9325 45.8125 19.1562C45.8125 19.38 45.7236 19.5946 45.5654 19.7529C45.4071 19.9111 45.1925 20 44.9688 20C44.745 20 44.5304 19.9111 44.3721 19.7529C44.2139 19.5946 44.125 19.38 44.125 19.1562Z" fill="#7547FF"/>
</g>
</g>
<defs>
<filter id="filter0_d_298_2311" x="0" y="0" width="84" height="60" filterUnits="userSpaceOnUse" color-interpolation-filters="sRGB">
<feFlood flood-opacity="0" result="BackgroundImageFix"/>
<feColorMatrix in="SourceAlpha" type="matrix" values="0 0 0 0 0 0 0 0 0 0 0 0 0 0 0 0 0 0 127 0" result="hardAlpha"/>
<feOffset dy="1"/>
<feGaussianBlur stdDeviation="1"/>
<feColorMatrix type="matrix" values="0 0 0 0 0 0 0 0 0 0 0 0 0 0 0 0 0 0 0.05 0"/>
<feBlend mode="normal" in2="BackgroundImageFix" result="effect1_dropShadow_298_2311"/>
<feBlend mode="normal" in="SourceGraphic" in2="effect1_dropShadow_298_2311" result="shape"/>
</filter>
<clipPath id="clip0_298_2311">
<path d="M34 11H49.75V29H34V11Z" fill="white"/>
</clipPath>
</defs>
</svg>
