<svg width="16" height="15" viewBox="0 0 16 15" fill="currentColor" xmlns="http://www.w3.org/2000/svg">
<path d="M1.9707 1.55664C3.37984 0.0977075 5.61702 0.156331 6.96191 1.69141L7.67871 2.51074L8.05469 2.93945L8.43066 2.51074L9.03809 1.81836V1.81738C10.3823 0.279885 12.6196 0.22268 14.0293 1.68164L14.3877 2.05371L14.4551 2.12305C15.8213 3.61414 15.8555 6.06837 14.5117 7.60254H14.5107L8.69531 14.2471C8.40917 14.5739 7.94676 14.5836 7.64941 14.2764H7.64844L5.27051 11.8145L5.26953 11.8125L5.1123 11.6387C5.06164 11.5783 5.01213 11.5162 4.96484 11.4521L4.95312 11.4355L4.93945 11.4199L1.48828 7.47949C0.165367 5.96564 0.177772 3.56676 1.48145 2.07031L1.6123 1.92773L1.96973 1.55566L1.9707 1.55664Z" stroke="currentColor"/>
</svg>
