<svg width="48" height="18" viewBox="0 0 48 18" fill="currentColor" xmlns="http://www.w3.org/2000/svg">
<g clip-path="url(#clip0_298_2338)">
<path d="M21.625 3.9375C21.625 2.69648 22.634 1.6875 23.875 1.6875C25.116 1.6875 26.125 2.69648 26.125 3.9375V5.625H21.625V3.9375ZM19.9375 5.625H17.6875C16.7559 5.625 16 6.38086 16 7.3125V14.625C16 16.4883 17.5117 18 19.375 18H28.375C30.2383 18 31.75 16.4883 31.75 14.625V7.3125C31.75 6.38086 30.9941 5.625 30.0625 5.625H27.8125V3.9375C27.8125 1.76133 26.0512 0 23.875 0C21.6988 0 19.9375 1.76133 19.9375 3.9375V5.625ZM20.7812 7.3125C21.005 7.3125 21.2196 7.40139 21.3779 7.55963C21.5361 7.71786 21.625 7.93247 21.625 8.15625C21.625 8.38003 21.5361 8.59464 21.3779 8.75287C21.2196 8.91111 21.005 9 20.7812 9C20.5575 9 20.3429 8.91111 20.1846 8.75287C20.0264 8.59464 19.9375 8.38003 19.9375 8.15625C19.9375 7.93247 20.0264 7.71786 20.1846 7.55963C20.3429 7.40139 20.5575 7.3125 20.7812 7.3125ZM26.125 8.15625C26.125 7.93247 26.2139 7.71786 26.3721 7.55963C26.5304 7.40139 26.745 7.3125 26.9688 7.3125C27.1925 7.3125 27.4071 7.40139 27.5654 7.55963C27.7236 7.71786 27.8125 7.93247 27.8125 8.15625C27.8125 8.38003 27.7236 8.59464 27.5654 8.75287C27.4071 8.91111 27.1925 9 26.9688 9C26.745 9 26.5304 8.91111 26.3721 8.75287C26.2139 8.59464 26.125 8.38003 26.125 8.15625Z" fill="currentColor"/>
</g>
<defs>
<clipPath id="clip0_298_2338">
<path d="M16 0H31.75V18H16V0Z" fill="currentColor"/>
</clipPath>
</defs>
</svg>
