<svg width="48" height="18" viewBox="0 0 48 18" fill="currentColor" xmlns="http://www.w3.org/2000/svg">
<g clip-path="url(#clip0_298_2325)">
<path d="M13.875 1.125C14.4973 1.125 15 1.62773 15 2.25V11.25H22.875V5.625C22.875 5.00273 23.3777 4.5 24 4.5H31.875C33.7383 4.5 35.25 6.01172 35.25 7.875V15.75C35.25 16.3723 34.7473 16.875 34.125 16.875C33.5027 16.875 33 16.3723 33 15.75V14.625H25.125H24H15V15.75C15 16.3723 14.4973 16.875 13.875 16.875C13.2527 16.875 12.75 16.3723 12.75 15.75V2.25C12.75 1.62773 13.2527 1.125 13.875 1.125ZM18.9375 4.5C19.6834 4.5 20.3988 4.79632 20.9262 5.32376C21.4537 5.85121 21.75 6.56658 21.75 7.3125C21.75 8.05842 21.4537 8.77379 20.9262 9.30124C20.3988 9.82868 19.6834 10.125 18.9375 10.125C18.1916 10.125 17.4762 9.82868 16.9488 9.30124C16.4213 8.77379 16.125 8.05842 16.125 7.3125C16.125 6.56658 16.4213 5.85121 16.9488 5.32376C17.4762 4.79632 18.1916 4.5 18.9375 4.5Z" fill="currentColor"/>
</g>
<defs>
<clipPath id="clip0_298_2325">
<path d="M12.75 0H35.25V18H12.75V0Z" fill="currentColor"/>
</clipPath>
</defs>
</svg>
