<svg width="47" height="18" viewBox="0 0 47 18" fill="none" xmlns="http://www.w3.org/2000/svg">
<g clip-path="url(#clip0_298_2170)">
<path d="M30.75 0C30.1875 0 26.25 1.125 26.25 6.1875V10.125C26.25 11.366 27.259 12.375 28.5 12.375H29.625V16.875C29.625 17.4973 30.1277 18 30.75 18C31.3723 18 31.875 17.4973 31.875 16.875V12.375V8.4375V1.125C31.875 0.502734 31.3723 0 30.75 0ZM18.375 0.5625C18.375 0.274219 18.1605 0.0351562 17.8723 0.00351563C17.584 -0.028125 17.3273 0.161719 17.2641 0.439453L16.1988 5.23125C16.1496 5.45273 16.125 5.67773 16.125 5.90273C16.125 7.51641 17.359 8.8418 18.9375 8.98594V16.875C18.9375 17.4973 19.4402 18 20.0625 18C20.6848 18 21.1875 17.4973 21.1875 16.875V8.98594C22.766 8.8418 24 7.51641 24 5.90273C24 5.67773 23.9754 5.45273 23.9262 5.23125L22.8609 0.439453C22.7977 0.158203 22.534 -0.028125 22.2492 0.00351563C21.9645 0.0351562 21.75 0.274219 21.75 0.5625V5.28047C21.75 5.47031 21.5953 5.625 21.4055 5.625C21.2262 5.625 21.0785 5.48789 21.0609 5.30859L20.6215 0.513281C20.5969 0.221484 20.3543 0 20.0625 0C19.7707 0 19.5281 0.221484 19.5035 0.513281L19.0676 5.30859C19.05 5.48789 18.9023 5.625 18.723 5.625C18.5332 5.625 18.3785 5.47031 18.3785 5.28047V0.5625H18.375ZM20.073 5.90625H20.0625H20.052L20.0625 5.88164L20.073 5.90625Z" fill="currentColor"/>
</g>
<defs>
<clipPath id="clip0_298_2170">
<path d="M16.125 0H31.875V18H16.125V0Z" fill="currentColor"/>
</clipPath>
</defs>
</svg>
