<svg width="48" height="18" viewBox="0 0 48 18" fill="currentColor" xmlns="http://www.w3.org/2000/svg">
<g clip-path="url(#clip0_298_2319)">
<path d="M30.8309 6.75C32.0332 6.75 34.125 7.76953 34.125 9C34.125 10.2656 32.0332 11.25 30.8309 11.25H26.7316L23.1984 17.434C22.998 17.7855 22.6254 18 22.2211 18H20.2453C19.8727 18 19.602 17.6414 19.7039 17.2828L21.4266 11.25H17.8125L16.2938 13.275C16.1883 13.4156 16.0195 13.5 15.8438 13.5H14.3672C14.093 13.5 13.875 13.2785 13.875 13.0078C13.875 12.9621 13.882 12.9164 13.8926 12.8707L15 9L13.8926 5.1293C13.8785 5.08359 13.875 5.03789 13.875 4.99219C13.875 4.71797 14.0965 4.5 14.3672 4.5H15.8438C16.0195 4.5 16.1883 4.58437 16.2938 4.725L17.8125 6.75H21.4301L19.7074 0.717187C19.602 0.358594 19.8727 0 20.2453 0H22.2211C22.6254 0 22.998 0.217969 23.1984 0.566016L26.7316 6.75H30.8309Z" fill="currentColor"/>
</g>
<defs>
<clipPath id="clip0_298_2319">
<path d="M13.875 0H34.125V18H13.875V0Z" fill="currentColor"/>
</clipPath>
</defs>
</svg>
