<svg width="24" height="24" viewBox="0 0 24 24" fill="none" xmlns="http://www.w3.org/2000/svg">
<path d="M12 24C18.6274 24 24 18.6274 24 12C24 5.37257 18.6274 0 12 0C5.37254 0 0 5.37257 0 12C0 18.6274 5.37254 24 12 24Z" fill="currentColor"/>
<path d="M5.83545 6.95117L8.95711 17.3928L12.0001 9.00606" fill="#D9DBDC"/>
<path d="M8.95694 18.027H8.93726C8.66196 18.0172 8.42602 17.8353 8.34736 17.5747L5.2257 7.13802C5.12246 6.79882 5.31419 6.44487 5.65339 6.34655C5.98768 6.24331 6.34654 6.43504 6.44486 6.77424L9.01593 15.3674L11.4002 8.79473C11.5182 8.46536 11.8869 8.29328 12.2163 8.41127C12.5456 8.52925 12.7177 8.89797 12.5997 9.22734L9.55668 17.6091C9.46328 17.8599 9.22732 18.027 8.95694 18.027Z" fill="white"/>
<path d="M18.1647 7.02002L15.0381 17.4567L12 9.07493" fill="#D9DBDC"/>
<path d="M15.0381 18.0958C14.7726 18.0958 14.5317 17.9286 14.4383 17.6779L11.3953 9.29609C11.2773 8.96672 11.4445 8.59803 11.7787 8.48004C12.113 8.36206 12.4768 8.5292 12.5948 8.86349L14.9791 15.4362L17.5501 6.84302C17.6534 6.50381 18.0073 6.31699 18.3416 6.41531C18.6808 6.51855 18.8725 6.87251 18.7693 7.2068L15.6476 17.6435C15.569 17.909 15.3281 18.0909 15.0577 18.0958H15.0381Z" fill="white"/>
<path d="M18.9465 13.4896H4.91621C4.56225 13.4896 4.2771 13.2045 4.2771 12.8505C4.2771 12.4965 4.56225 12.2114 4.91621 12.2114H18.9465C19.3004 12.2114 19.5856 12.4965 19.5856 12.8505C19.5856 13.2045 19.3004 13.4896 18.9465 13.4896Z" fill="white"/>
<path d="M18.9465 11.2823H4.91621C4.56225 11.2823 4.2771 10.9972 4.2771 10.6433C4.2771 10.2893 4.56225 10.0042 4.91621 10.0042H18.9465C19.3004 10.0042 19.5856 10.2893 19.5856 10.6433C19.5856 10.9972 19.3004 11.2823 18.9465 11.2823Z" fill="currentColor"/>
</svg>
